<!--?xml version="1.0" encoding="us-ascii" standalone="no"?--><svg xmlns="http://www.w3.org/2000/svg" xmlns:xlink="http://www.w3.org/1999/xlink" contentstyletype="text/css" height="359px" preserveAspectRatio="none" style="width:1376px;height:359px;background:#FFFFFF;" version="1.1" viewBox="0 0 1376 359" width="1376px" zoomAndPan="magnify"><defs></defs><g><!--class CakeSingleton--><g id="elem_CakeSingleton"><rect codeline="1" fill="#F1F1F1" height="64.2969" id="CakeSingleton" rx="2.5" ry="2.5" style="stroke:#181818;stroke-width:0.5;" width="227" x="164.5" y="7"></rect><ellipse cx="223.75" cy="23" fill="#ADD1B2" rx="11" ry="11" style="stroke:#181818;stroke-width:1.0;"></ellipse><path d="M226.7188,28.6406 Q226.1406,28.9375 225.5,29.0781 Q224.8594,29.2344 224.1563,29.2344 Q221.6563,29.2344 220.3281,27.5938 Q219.0156,25.9375 219.0156,22.8125 Q219.0156,19.6875 220.3281,18.0313 Q221.6563,16.375 224.1563,16.375 Q224.8594,16.375 225.5,16.5313 Q226.1563,16.6875 226.7188,16.9844 L226.7188,19.7031 Q226.0938,19.125 225.5,18.8594 Q224.9063,18.5781 224.2813,18.5781 Q222.9375,18.5781 222.25,19.6563 Q221.5625,20.7188 221.5625,22.8125 Q221.5625,24.9063 222.25,25.9844 Q222.9375,27.0469 224.2813,27.0469 Q224.9063,27.0469 225.5,26.7813 Q226.0938,26.5 226.7188,25.9219 L226.7188,28.6406 Z " fill="#000000"></path><text fill="#000000" font-family="sans-serif" font-size="14" lengthAdjust="spacing" textLength="100" x="244.25" y="27.8467">CakeSingleton</text><line style="stroke:#181818;stroke-width:0.5;" x1="165.5" x2="390.5" y1="39" y2="39"></line><line style="stroke:#181818;stroke-width:0.5;" x1="165.5" x2="390.5" y1="47" y2="47"></line><ellipse cx="175.5" cy="60.6484" fill="#84BE84" rx="3" ry="3" style="stroke:#038048;stroke-width:1.0;"></ellipse><text fill="#000000" font-family="sans-serif" font-size="14" lengthAdjust="spacing" textLength="201" x="184.5" y="63.9951">getInstance(): CakeSingleton</text></g><!--class BakeStrategy--><g id="elem_BakeStrategy"><rect codeline="5" fill="#F1F1F1" height="64.2969" id="BakeStrategy" rx="2.5" ry="2.5" style="stroke:#181818;stroke-width:0.5;" width="124" x="849" y="7"></rect><ellipse cx="864" cy="23" fill="#ADD1B2" rx="11" ry="11" style="stroke:#181818;stroke-width:1.0;"></ellipse><path d="M866.9688,28.6406 Q866.3906,28.9375 865.75,29.0781 Q865.1094,29.2344 864.4063,29.2344 Q861.9063,29.2344 860.5781,27.5938 Q859.2656,25.9375 859.2656,22.8125 Q859.2656,19.6875 860.5781,18.0313 Q861.9063,16.375 864.4063,16.375 Q865.1094,16.375 865.75,16.5313 Q866.4063,16.6875 866.9688,16.9844 L866.9688,19.7031 Q866.3438,19.125 865.75,18.8594 Q865.1563,18.5781 864.5313,18.5781 Q863.1875,18.5781 862.5,19.6563 Q861.8125,20.7188 861.8125,22.8125 Q861.8125,24.9063 862.5,25.9844 Q863.1875,27.0469 864.5313,27.0469 Q865.1563,27.0469 865.75,26.7813 Q866.3438,26.5 866.9688,25.9219 L866.9688,28.6406 Z " fill="#000000"></path><text fill="#000000" font-family="sans-serif" font-size="14" lengthAdjust="spacing" textLength="92" x="878" y="27.8467">BakeStrategy</text><line style="stroke:#181818;stroke-width:0.5;" x1="850" x2="972" y1="39" y2="39"></line><line style="stroke:#181818;stroke-width:0.5;" x1="850" x2="972" y1="47" y2="47"></line><ellipse cx="860" cy="60.6484" fill="#84BE84" rx="3" ry="3" style="stroke:#038048;stroke-width:1.0;"></ellipse><text fill="#000000" font-family="sans-serif" font-size="14" lengthAdjust="spacing" textLength="81" x="869" y="63.9951">bake(): void</text></g><!--class StandardBake--><g id="elem_StandardBake"><rect codeline="9" fill="#F1F1F1" height="64.2969" id="StandardBake" rx="2.5" ry="2.5" style="stroke:#181818;stroke-width:0.5;" width="129" x="770.5" y="147.59"></rect><ellipse cx="785.5" cy="163.59" fill="#ADD1B2" rx="11" ry="11" style="stroke:#181818;stroke-width:1.0;"></ellipse><path d="M788.4688,169.2306 Q787.8906,169.5275 787.25,169.6681 Q786.6094,169.8244 785.9063,169.8244 Q783.4063,169.8244 782.0781,168.1838 Q780.7656,166.5275 780.7656,163.4025 Q780.7656,160.2775 782.0781,158.6213 Q783.4063,156.965 785.9063,156.965 Q786.6094,156.965 787.25,157.1213 Q787.9063,157.2775 788.4688,157.5744 L788.4688,160.2931 Q787.8438,159.715 787.25,159.4494 Q786.6563,159.1681 786.0313,159.1681 Q784.6875,159.1681 784,160.2463 Q783.3125,161.3088 783.3125,163.4025 Q783.3125,165.4963 784,166.5744 Q784.6875,167.6369 786.0313,167.6369 Q786.6563,167.6369 787.25,167.3713 Q787.8438,167.09 788.4688,166.5119 L788.4688,169.2306 Z " fill="#000000"></path><text fill="#000000" font-family="sans-serif" font-size="14" lengthAdjust="spacing" textLength="97" x="799.5" y="168.4367">StandardBake</text><line style="stroke:#181818;stroke-width:0.5;" x1="771.5" x2="898.5" y1="179.59" y2="179.59"></line><line style="stroke:#181818;stroke-width:0.5;" x1="771.5" x2="898.5" y1="187.59" y2="187.59"></line><ellipse cx="781.5" cy="201.2384" fill="#84BE84" rx="3" ry="3" style="stroke:#038048;stroke-width:1.0;"></ellipse><text fill="#000000" font-family="sans-serif" font-size="14" lengthAdjust="spacing" textLength="81" x="790.5" y="204.5851">bake(): void</text></g><!--class QuickBake--><g id="elem_QuickBake"><rect codeline="13" fill="#F1F1F1" height="64.2969" id="QuickBake" rx="2.5" ry="2.5" style="stroke:#181818;stroke-width:0.5;" width="107" x="934.5" y="147.59"></rect><ellipse cx="949.95" cy="163.59" fill="#ADD1B2" rx="11" ry="11" style="stroke:#181818;stroke-width:1.0;"></ellipse><path d="M952.9188,169.2306 Q952.3406,169.5275 951.7,169.6681 Q951.0594,169.8244 950.3563,169.8244 Q947.8563,169.8244 946.5281,168.1838 Q945.2156,166.5275 945.2156,163.4025 Q945.2156,160.2775 946.5281,158.6213 Q947.8563,156.965 950.3563,156.965 Q951.0594,156.965 951.7,157.1213 Q952.3563,157.2775 952.9188,157.5744 L952.9188,160.2931 Q952.2938,159.715 951.7,159.4494 Q951.1063,159.1681 950.4813,159.1681 Q949.1375,159.1681 948.45,160.2463 Q947.7625,161.3088 947.7625,163.4025 Q947.7625,165.4963 948.45,166.5744 Q949.1375,167.6369 950.4813,167.6369 Q951.1063,167.6369 951.7,167.3713 Q952.2938,167.09 952.9188,166.5119 L952.9188,169.2306 Z " fill="#000000"></path><text fill="#000000" font-family="sans-serif" font-size="14" lengthAdjust="spacing" textLength="74" x="964.05" y="168.4367">QuickBake</text><line style="stroke:#181818;stroke-width:0.5;" x1="935.5" x2="1040.5" y1="179.59" y2="179.59"></line><line style="stroke:#181818;stroke-width:0.5;" x1="935.5" x2="1040.5" y1="187.59" y2="187.59"></line><ellipse cx="945.5" cy="201.2384" fill="#84BE84" rx="3" ry="3" style="stroke:#038048;stroke-width:1.0;"></ellipse><text fill="#000000" font-family="sans-serif" font-size="14" lengthAdjust="spacing" textLength="81" x="954.5" y="204.5851">bake(): void</text></g><!--class OrderObserver--><g id="elem_OrderObserver"><rect codeline="17" fill="#F1F1F1" height="64.2969" id="OrderObserver" rx="2.5" ry="2.5" style="stroke:#181818;stroke-width:0.5;" width="134" x="1156" y="7"></rect><ellipse cx="1171" cy="23" fill="#ADD1B2" rx="11" ry="11" style="stroke:#181818;stroke-width:1.0;"></ellipse><path d="M1173.9688,28.6406 Q1173.3906,28.9375 1172.75,29.0781 Q1172.1094,29.2344 1171.4063,29.2344 Q1168.9063,29.2344 1167.5781,27.5938 Q1166.2656,25.9375 1166.2656,22.8125 Q1166.2656,19.6875 1167.5781,18.0313 Q1168.9063,16.375 1171.4063,16.375 Q1172.1094,16.375 1172.75,16.5313 Q1173.4063,16.6875 1173.9688,16.9844 L1173.9688,19.7031 Q1173.3438,19.125 1172.75,18.8594 Q1172.1563,18.5781 1171.5313,18.5781 Q1170.1875,18.5781 1169.5,19.6563 Q1168.8125,20.7188 1168.8125,22.8125 Q1168.8125,24.9063 1169.5,25.9844 Q1170.1875,27.0469 1171.5313,27.0469 Q1172.1563,27.0469 1172.75,26.7813 Q1173.3438,26.5 1173.9688,25.9219 L1173.9688,28.6406 Z " fill="#000000"></path><text fill="#000000" font-family="sans-serif" font-size="14" lengthAdjust="spacing" textLength="102" x="1185" y="27.8467">OrderObserver</text><line style="stroke:#181818;stroke-width:0.5;" x1="1157" x2="1289" y1="39" y2="39"></line><line style="stroke:#181818;stroke-width:0.5;" x1="1157" x2="1289" y1="47" y2="47"></line><ellipse cx="1167" cy="60.6484" fill="#84BE84" rx="3" ry="3" style="stroke:#038048;stroke-width:1.0;"></ellipse><text fill="#000000" font-family="sans-serif" font-size="14" lengthAdjust="spacing" textLength="96" x="1176" y="63.9951">update(): void</text></g><!--class OrderNotifier--><g id="elem_OrderNotifier"><rect codeline="21" fill="#F1F1F1" height="96.8906" id="OrderNotifier" rx="2.5" ry="2.5" style="stroke:#181818;stroke-width:0.5;" width="293" x="1076.5" y="131.29"></rect><ellipse cx="1175.25" cy="147.29" fill="#ADD1B2" rx="11" ry="11" style="stroke:#181818;stroke-width:1.0;"></ellipse><path d="M1178.2188,152.9306 Q1177.6406,153.2275 1177,153.3681 Q1176.3594,153.5244 1175.6563,153.5244 Q1173.1563,153.5244 1171.8281,151.8838 Q1170.5156,150.2275 1170.5156,147.1025 Q1170.5156,143.9775 1171.8281,142.3213 Q1173.1563,140.665 1175.6563,140.665 Q1176.3594,140.665 1177,140.8213 Q1177.6563,140.9775 1178.2188,141.2744 L1178.2188,143.9931 Q1177.5938,143.415 1177,143.1494 Q1176.4063,142.8681 1175.7813,142.8681 Q1174.4375,142.8681 1173.75,143.9463 Q1173.0625,145.0088 1173.0625,147.1025 Q1173.0625,149.1963 1173.75,150.2744 Q1174.4375,151.3369 1175.7813,151.3369 Q1176.4063,151.3369 1177,151.0713 Q1177.5938,150.79 1178.2188,150.2119 L1178.2188,152.9306 Z " fill="#000000"></path><text fill="#000000" font-family="sans-serif" font-size="14" lengthAdjust="spacing" textLength="87" x="1195.75" y="152.1367">OrderNotifier</text><line style="stroke:#181818;stroke-width:0.5;" x1="1077.5" x2="1368.5" y1="163.29" y2="163.29"></line><line style="stroke:#181818;stroke-width:0.5;" x1="1077.5" x2="1368.5" y1="171.29" y2="171.29"></line><ellipse cx="1087.5" cy="184.9384" fill="#84BE84" rx="3" ry="3" style="stroke:#038048;stroke-width:1.0;"></ellipse><text fill="#000000" font-family="sans-serif" font-size="14" lengthAdjust="spacing" textLength="262" x="1096.5" y="188.2851">attach(observer: OrderObserver): void</text><ellipse cx="1087.5" cy="201.2353" fill="#84BE84" rx="3" ry="3" style="stroke:#038048;stroke-width:1.0;"></ellipse><text fill="#000000" font-family="sans-serif" font-size="14" lengthAdjust="spacing" textLength="267" x="1096.5" y="204.582">detach(observer: OrderObserver): void</text><ellipse cx="1087.5" cy="217.5322" fill="#84BE84" rx="3" ry="3" style="stroke:#038048;stroke-width:1.0;"></ellipse><text fill="#000000" font-family="sans-serif" font-size="14" lengthAdjust="spacing" textLength="84" x="1096.5" y="220.8789">notify(): void</text></g><!--class ToppingDecorator--><g id="elem_ToppingDecorator"><rect codeline="27" fill="#F1F1F1" height="64.2969" id="ToppingDecorator" rx="2.5" ry="2.5" style="stroke:#181818;stroke-width:0.5;" width="158" x="7" y="147.59"></rect><ellipse cx="22" cy="163.59" fill="#ADD1B2" rx="11" ry="11" style="stroke:#181818;stroke-width:1.0;"></ellipse><path d="M24.9688,169.2306 Q24.3906,169.5275 23.75,169.6681 Q23.1094,169.8244 22.4063,169.8244 Q19.9063,169.8244 18.5781,168.1838 Q17.2656,166.5275 17.2656,163.4025 Q17.2656,160.2775 18.5781,158.6213 Q19.9063,156.965 22.4063,156.965 Q23.1094,156.965 23.75,157.1213 Q24.4063,157.2775 24.9688,157.5744 L24.9688,160.2931 Q24.3438,159.715 23.75,159.4494 Q23.1563,159.1681 22.5313,159.1681 Q21.1875,159.1681 20.5,160.2463 Q19.8125,161.3088 19.8125,163.4025 Q19.8125,165.4963 20.5,166.5744 Q21.1875,167.6369 22.5313,167.6369 Q23.1563,167.6369 23.75,167.3713 Q24.3438,167.09 24.9688,166.5119 L24.9688,169.2306 Z " fill="#000000"></path><text fill="#000000" font-family="sans-serif" font-size="14" lengthAdjust="spacing" textLength="126" x="36" y="168.4367">ToppingDecorator</text><line style="stroke:#181818;stroke-width:0.5;" x1="8" x2="164" y1="179.59" y2="179.59"></line><line style="stroke:#181818;stroke-width:0.5;" x1="8" x2="164" y1="187.59" y2="187.59"></line><ellipse cx="18" cy="201.2384" fill="#84BE84" rx="3" ry="3" style="stroke:#038048;stroke-width:1.0;"></ellipse><text fill="#000000" font-family="sans-serif" font-size="14" lengthAdjust="spacing" textLength="130" x="27" y="204.5851">addTopping(): void</text></g><!--class NutsTopping--><g id="elem_NutsTopping"><rect codeline="31" fill="#F1F1F1" height="64.2969" id="NutsTopping" rx="2.5" ry="2.5" style="stroke:#181818;stroke-width:0.5;" width="156" x="199" y="288.18"></rect><ellipse cx="229.75" cy="304.18" fill="#ADD1B2" rx="11" ry="11" style="stroke:#181818;stroke-width:1.0;"></ellipse><path d="M232.7188,309.8206 Q232.1406,310.1175 231.5,310.2581 Q230.8594,310.4144 230.1563,310.4144 Q227.6563,310.4144 226.3281,308.7738 Q225.0156,307.1175 225.0156,303.9925 Q225.0156,300.8675 226.3281,299.2113 Q227.6563,297.555 230.1563,297.555 Q230.8594,297.555 231.5,297.7113 Q232.1563,297.8675 232.7188,298.1644 L232.7188,300.8831 Q232.0938,300.305 231.5,300.0394 Q230.9063,299.7581 230.2813,299.7581 Q228.9375,299.7581 228.25,300.8363 Q227.5625,301.8988 227.5625,303.9925 Q227.5625,306.0863 228.25,307.1644 Q228.9375,308.2269 230.2813,308.2269 Q230.9063,308.2269 231.5,307.9613 Q232.0938,307.68 232.7188,307.1019 L232.7188,309.8206 Z " fill="#000000"></path><text fill="#000000" font-family="sans-serif" font-size="14" lengthAdjust="spacing" textLength="89" x="247.25" y="309.0267">NutsTopping</text><line style="stroke:#181818;stroke-width:0.5;" x1="200" x2="354" y1="320.18" y2="320.18"></line><line style="stroke:#181818;stroke-width:0.5;" x1="200" x2="354" y1="328.18" y2="328.18"></line><ellipse cx="210" cy="341.8284" fill="#84BE84" rx="3" ry="3" style="stroke:#038048;stroke-width:1.0;"></ellipse><text fill="#000000" font-family="sans-serif" font-size="14" lengthAdjust="spacing" textLength="130" x="219" y="345.1751">addTopping(): void</text></g><!--class OreoTopping--><g id="elem_OreoTopping"><rect codeline="35" fill="#F1F1F1" height="64.2969" id="OreoTopping" rx="2.5" ry="2.5" style="stroke:#181818;stroke-width:0.5;" width="156" x="8" y="288.18"></rect><ellipse cx="37.85" cy="304.18" fill="#ADD1B2" rx="11" ry="11" style="stroke:#181818;stroke-width:1.0;"></ellipse><path d="M40.8188,309.8206 Q40.2406,310.1175 39.6,310.2581 Q38.9594,310.4144 38.2563,310.4144 Q35.7563,310.4144 34.4281,308.7738 Q33.1156,307.1175 33.1156,303.9925 Q33.1156,300.8675 34.4281,299.2113 Q35.7563,297.555 38.2563,297.555 Q38.9594,297.555 39.6,297.7113 Q40.2563,297.8675 40.8188,298.1644 L40.8188,300.8831 Q40.1938,300.305 39.6,300.0394 Q39.0063,299.7581 38.3813,299.7581 Q37.0375,299.7581 36.35,300.8363 Q35.6625,301.8988 35.6625,303.9925 Q35.6625,306.0863 36.35,307.1644 Q37.0375,308.2269 38.3813,308.2269 Q39.0063,308.2269 39.6,307.9613 Q40.1938,307.68 40.8188,307.1019 L40.8188,309.8206 Z " fill="#000000"></path><text fill="#000000" font-family="sans-serif" font-size="14" lengthAdjust="spacing" textLength="91" x="55.15" y="309.0267">OreoTopping</text><line style="stroke:#181818;stroke-width:0.5;" x1="9" x2="163" y1="320.18" y2="320.18"></line><line style="stroke:#181818;stroke-width:0.5;" x1="9" x2="163" y1="328.18" y2="328.18"></line><ellipse cx="19" cy="341.8284" fill="#84BE84" rx="3" ry="3" style="stroke:#038048;stroke-width:1.0;"></ellipse><text fill="#000000" font-family="sans-serif" font-size="14" lengthAdjust="spacing" textLength="130" x="28" y="345.1751">addTopping(): void</text></g><!--class CakeAdapter--><g id="elem_CakeAdapter"><rect codeline="39" fill="#F1F1F1" height="64.2969" id="CakeAdapter" rx="2.5" ry="2.5" style="stroke:#181818;stroke-width:0.5;" width="146" x="391" y="147.59"></rect><ellipse cx="417.25" cy="163.59" fill="#ADD1B2" rx="11" ry="11" style="stroke:#181818;stroke-width:1.0;"></ellipse><path d="M420.2188,169.2306 Q419.6406,169.5275 419,169.6681 Q418.3594,169.8244 417.6563,169.8244 Q415.1563,169.8244 413.8281,168.1838 Q412.5156,166.5275 412.5156,163.4025 Q412.5156,160.2775 413.8281,158.6213 Q415.1563,156.965 417.6563,156.965 Q418.3594,156.965 419,157.1213 Q419.6563,157.2775 420.2188,157.5744 L420.2188,160.2931 Q419.5938,159.715 419,159.4494 Q418.4063,159.1681 417.7813,159.1681 Q416.4375,159.1681 415.75,160.2463 Q415.0625,161.3088 415.0625,163.4025 Q415.0625,165.4963 415.75,166.5744 Q416.4375,167.6369 417.7813,167.6369 Q418.4063,167.6369 419,167.3713 Q419.5938,167.09 420.2188,166.5119 L420.2188,169.2306 Z " fill="#000000"></path><text fill="#000000" font-family="sans-serif" font-size="14" lengthAdjust="spacing" textLength="89" x="433.75" y="168.4367">CakeAdapter</text><line style="stroke:#181818;stroke-width:0.5;" x1="392" x2="536" y1="179.59" y2="179.59"></line><line style="stroke:#181818;stroke-width:0.5;" x1="392" x2="536" y1="187.59" y2="187.59"></line><ellipse cx="402" cy="201.2384" fill="#84BE84" rx="3" ry="3" style="stroke:#038048;stroke-width:1.0;"></ellipse><text fill="#000000" font-family="sans-serif" font-size="14" lengthAdjust="spacing" textLength="120" x="411" y="204.5851">serveCake(): void</text></g><!--class CakeAdapterImpl--><g id="elem_CakeAdapterImpl"><rect codeline="43" fill="#F1F1F1" height="64.2969" id="CakeAdapterImpl" rx="2.5" ry="2.5" style="stroke:#181818;stroke-width:0.5;" width="149" x="389.5" y="288.18"></rect><ellipse cx="404.5" cy="304.18" fill="#ADD1B2" rx="11" ry="11" style="stroke:#181818;stroke-width:1.0;"></ellipse><path d="M407.4688,309.8206 Q406.8906,310.1175 406.25,310.2581 Q405.6094,310.4144 404.9063,310.4144 Q402.4063,310.4144 401.0781,308.7738 Q399.7656,307.1175 399.7656,303.9925 Q399.7656,300.8675 401.0781,299.2113 Q402.4063,297.555 404.9063,297.555 Q405.6094,297.555 406.25,297.7113 Q406.9063,297.8675 407.4688,298.1644 L407.4688,300.8831 Q406.8438,300.305 406.25,300.0394 Q405.6563,299.7581 405.0313,299.7581 Q403.6875,299.7581 403,300.8363 Q402.3125,301.8988 402.3125,303.9925 Q402.3125,306.0863 403,307.1644 Q403.6875,308.2269 405.0313,308.2269 Q405.6563,308.2269 406.25,307.9613 Q406.8438,307.68 407.4688,307.1019 L407.4688,309.8206 Z " fill="#000000"></path><text fill="#000000" font-family="sans-serif" font-size="14" lengthAdjust="spacing" textLength="117" x="418.5" y="309.0267">CakeAdapterImpl</text><line style="stroke:#181818;stroke-width:0.5;" x1="390.5" x2="537.5" y1="320.18" y2="320.18"></line><line style="stroke:#181818;stroke-width:0.5;" x1="390.5" x2="537.5" y1="328.18" y2="328.18"></line><ellipse cx="400.5" cy="341.8284" fill="#84BE84" rx="3" ry="3" style="stroke:#038048;stroke-width:1.0;"></ellipse><text fill="#000000" font-family="sans-serif" font-size="14" lengthAdjust="spacing" textLength="120" x="409.5" y="345.1751">serveCake(): void</text></g><!--class CakeFactory--><g id="elem_CakeFactory"><rect codeline="47" fill="#F1F1F1" height="64.2969" id="CakeFactory" rx="2.5" ry="2.5" style="stroke:#181818;stroke-width:0.5;" width="159" x="500.5" y="7"></rect><ellipse cx="534.4" cy="23" fill="#ADD1B2" rx="11" ry="11" style="stroke:#181818;stroke-width:1.0;"></ellipse><path d="M537.3688,28.6406 Q536.7906,28.9375 536.15,29.0781 Q535.5094,29.2344 534.8063,29.2344 Q532.3063,29.2344 530.9781,27.5938 Q529.6656,25.9375 529.6656,22.8125 Q529.6656,19.6875 530.9781,18.0313 Q532.3063,16.375 534.8063,16.375 Q535.5094,16.375 536.15,16.5313 Q536.8063,16.6875 537.3688,16.9844 L537.3688,19.7031 Q536.7438,19.125 536.15,18.8594 Q535.5563,18.5781 534.9313,18.5781 Q533.5875,18.5781 532.9,19.6563 Q532.2125,20.7188 532.2125,22.8125 Q532.2125,24.9063 532.9,25.9844 Q533.5875,27.0469 534.9313,27.0469 Q535.5563,27.0469 536.15,26.7813 Q536.7438,26.5 537.3688,25.9219 L537.3688,28.6406 Z " fill="#000000"></path><text fill="#000000" font-family="sans-serif" font-size="14" lengthAdjust="spacing" textLength="85" x="552.6" y="27.8467">CakeFactory</text><line style="stroke:#181818;stroke-width:0.5;" x1="501.5" x2="658.5" y1="39" y2="39"></line><line style="stroke:#181818;stroke-width:0.5;" x1="501.5" x2="658.5" y1="47" y2="47"></line><ellipse cx="511.5" cy="60.6484" fill="#84BE84" rx="3" ry="3" style="stroke:#038048;stroke-width:1.0;"></ellipse><text fill="#000000" font-family="sans-serif" font-size="14" lengthAdjust="spacing" textLength="133" x="520.5" y="63.9951">createCake(): Cake</text></g><!--class SimpleCakeFactory--><g id="elem_SimpleCakeFactory"><rect codeline="51" fill="#F1F1F1" height="64.2969" id="SimpleCakeFactory" rx="2.5" ry="2.5" style="stroke:#181818;stroke-width:0.5;" width="163" x="572.5" y="147.59"></rect><ellipse cx="587.5" cy="163.59" fill="#ADD1B2" rx="11" ry="11" style="stroke:#181818;stroke-width:1.0;"></ellipse><path d="M590.4688,169.2306 Q589.8906,169.5275 589.25,169.6681 Q588.6094,169.8244 587.9063,169.8244 Q585.4063,169.8244 584.0781,168.1838 Q582.7656,166.5275 582.7656,163.4025 Q582.7656,160.2775 584.0781,158.6213 Q585.4063,156.965 587.9063,156.965 Q588.6094,156.965 589.25,157.1213 Q589.9063,157.2775 590.4688,157.5744 L590.4688,160.2931 Q589.8438,159.715 589.25,159.4494 Q588.6563,159.1681 588.0313,159.1681 Q586.6875,159.1681 586,160.2463 Q585.3125,161.3088 585.3125,163.4025 Q585.3125,165.4963 586,166.5744 Q586.6875,167.6369 588.0313,167.6369 Q588.6563,167.6369 589.25,167.3713 Q589.8438,167.09 590.4688,166.5119 L590.4688,169.2306 Z " fill="#000000"></path><text fill="#000000" font-family="sans-serif" font-size="14" lengthAdjust="spacing" textLength="131" x="601.5" y="168.4367">SimpleCakeFactory</text><line style="stroke:#181818;stroke-width:0.5;" x1="573.5" x2="734.5" y1="179.59" y2="179.59"></line><line style="stroke:#181818;stroke-width:0.5;" x1="573.5" x2="734.5" y1="187.59" y2="187.59"></line><ellipse cx="583.5" cy="201.2384" fill="#84BE84" rx="3" ry="3" style="stroke:#038048;stroke-width:1.0;"></ellipse><text fill="#000000" font-family="sans-serif" font-size="14" lengthAdjust="spacing" textLength="133" x="592.5" y="204.5851">createCake(): Cake</text></g><!--class Cake--><g id="elem_Cake"><rect codeline="55" fill="#F1F1F1" height="96.8906" id="Cake" rx="2.5" ry="2.5" style="stroke:#181818;stroke-width:0.5;" width="156" x="200" y="131.29"></rect><ellipse cx="256.25" cy="147.29" fill="#A9DCDF" rx="11" ry="11" style="stroke:#181818;stroke-width:1.0;"></ellipse><path d="M256.3594,142.6338 L255.2031,147.7119 L257.5313,147.7119 L256.3594,142.6338 Z M254.875,140.3994 L257.8594,140.3994 L261.2188,152.79 L258.7656,152.79 L258,149.7275 L254.7188,149.7275 L253.9688,152.79 L251.5313,152.79 L254.875,140.3994 Z " fill="#000000"></path><text fill="#000000" font-family="sans-serif" font-size="14" font-style="italic" lengthAdjust="spacing" textLength="35" x="276.75" y="152.1367">Cake</text><line style="stroke:#181818;stroke-width:0.5;" x1="201" x2="355" y1="163.29" y2="163.29"></line><line style="stroke:#181818;stroke-width:0.5;" x1="201" x2="355" y1="171.29" y2="171.29"></line><ellipse cx="211" cy="184.9384" fill="#84BE84" rx="3" ry="3" style="stroke:#038048;stroke-width:1.0;"></ellipse><text fill="#000000" font-family="sans-serif" font-size="14" lengthAdjust="spacing" textLength="81" x="220" y="188.2851">bake(): void</text><ellipse cx="211" cy="201.2353" fill="#84BE84" rx="3" ry="3" style="stroke:#038048;stroke-width:1.0;"></ellipse><text fill="#000000" font-family="sans-serif" font-size="14" lengthAdjust="spacing" textLength="130" x="220" y="204.582">addTopping(): void</text><ellipse cx="211" cy="217.5322" fill="#84BE84" rx="3" ry="3" style="stroke:#038048;stroke-width:1.0;"></ellipse><text fill="#000000" font-family="sans-serif" font-size="14" lengthAdjust="spacing" textLength="85" x="220" y="220.8789">serve(): void</text></g><!--reverse link Cake to NutsTopping--><g id="link_Cake_NutsTopping"><path codeline="61" d="M277.5,249.4 C277.41,262.96 277.31,276.54 277.23,288.08 " fill="none" id="Cake-backto-NutsTopping" style="stroke:#181818;stroke-width:1.0;"></path><polygon fill="none" points="270.51,249.38,277.66,229.43,284.51,249.48,270.51,249.38" style="stroke:#181818;stroke-width:1.0;"></polygon></g><!--reverse link Cake to OreoTopping--><g id="link_Cake_OreoTopping"><path codeline="62" d="M194.79,240.8 C172.39,256.97 149.05,273.82 129.75,287.75 " fill="none" id="Cake-backto-OreoTopping" style="stroke:#181818;stroke-width:1.0;"></path><polygon fill="none" points="190.34,234.66,210.66,228.63,198.54,246.01,190.34,234.66" style="stroke:#181818;stroke-width:1.0;"></polygon></g><!--reverse link Cake to CakeAdapterImpl--><g id="link_Cake_CakeAdapterImpl"><path codeline="63" d="M358.93,241.04 C380.53,257.14 403.02,273.89 421.62,287.75 " fill="none" id="Cake-backto-CakeAdapterImpl" style="stroke:#181818;stroke-width:1.0;"></path><polygon fill="none" points="355.13,246.19,343.27,228.63,363.49,234.96,355.13,246.19" style="stroke:#181818;stroke-width:1.0;"></polygon></g><!--link CakeSingleton to Cake--><g id="link_CakeSingleton_Cake"><path codeline="65" d="M278,71.59 C278,89.08 278,111.21 278,130.82 " fill="none" id="CakeSingleton-Cake" style="stroke:#181818;stroke-width:1.0;"></path><text fill="#000000" font-family="sans-serif" font-size="13" lengthAdjust="spacing" textLength="8" x="269.2375" y="91.2834">1</text><text fill="#000000" font-family="sans-serif" font-size="13" lengthAdjust="spacing" textLength="8" x="269.4625" y="120.315">1</text></g><!--reverse link BakeStrategy to StandardBake--><g id="link_BakeStrategy_StandardBake"><path codeline="66" d="M883.76,89.82 C873.23,109.03 861.49,130.42 852.18,147.41 " fill="none" id="BakeStrategy-backto-StandardBake" style="stroke:#181818;stroke-width:1.0;"></path><polygon fill="none" points="878,86.76,893.75,72.59,890.28,93.5,878,86.76" style="stroke:#181818;stroke-width:1.0;"></polygon></g><!--reverse link BakeStrategy to QuickBake--><g id="link_BakeStrategy_QuickBake"><path codeline="67" d="M938.6,89.82 C949.27,109.03 961.16,130.42 970.6,147.41 " fill="none" id="BakeStrategy-backto-QuickBake" style="stroke:#181818;stroke-width:1.0;"></path><polygon fill="none" points="932.07,93.48,928.47,72.59,944.3,86.68,932.07,93.48" style="stroke:#181818;stroke-width:1.0;"></polygon></g><!--reverse link OrderObserver to OrderNotifier--><g id="link_OrderObserver_OrderNotifier"><path codeline="68" d="M1223,92.38 C1223,104.99 1223,118.41 1223,130.82 " fill="none" id="OrderObserver-backto-OrderNotifier" style="stroke:#181818;stroke-width:1.0;"></path><polygon fill="none" points="1216,92.59,1223,72.59,1230,92.59,1216,92.59" style="stroke:#181818;stroke-width:1.0;"></polygon></g><!--reverse link ToppingDecorator to NutsTopping--><g id="link_ToppingDecorator_NutsTopping"><path codeline="69" d="M146.24,224.45 C174.55,244.99 207.68,269.03 233.5,287.77 " fill="none" id="ToppingDecorator-backto-NutsTopping" style="stroke:#181818;stroke-width:1.0;"></path><polygon fill="none" points="142.42,229.6,130.34,212.19,150.64,218.27,142.42,229.6" style="stroke:#181818;stroke-width:1.0;"></polygon></g><!--reverse link ToppingDecorator to OreoTopping--><g id="link_ToppingDecorator_OreoTopping"><path codeline="70" d="M86,233.13 C86,251.62 86,271.81 86,288.01 " fill="none" id="ToppingDecorator-backto-OreoTopping" style="stroke:#181818;stroke-width:1.0;"></path><polygon fill="none" points="79,233.19,86,213.19,93,233.19,79,233.19" style="stroke:#181818;stroke-width:1.0;"></polygon></g><!--reverse link CakeAdapter to CakeAdapterImpl--><g id="link_CakeAdapter_CakeAdapterImpl"><path codeline="71" d="M464,233.13 C464,251.62 464,271.81 464,288.01 " fill="none" id="CakeAdapter-backto-CakeAdapterImpl" style="stroke:#181818;stroke-width:1.0;stroke-dasharray:7.0,7.0;"></path><polygon fill="none" points="457,233.19,464,213.19,471,233.19,457,233.19" style="stroke:#181818;stroke-width:1.0;"></polygon></g><!--reverse link CakeFactory to SimpleCakeFactory--><g id="link_CakeFactory_SimpleCakeFactory"><path codeline="72" d="M606.53,89.82 C616.78,109.03 628.2,130.42 637.27,147.41 " fill="none" id="CakeFactory-backto-SimpleCakeFactory" style="stroke:#181818;stroke-width:1.0;"></path><polygon fill="none" points="600.04,93.53,596.79,72.59,612.39,86.94,600.04,93.53" style="stroke:#181818;stroke-width:1.0;"></polygon></g><!--reverse link CakeFactory to Cake--><g id="link_CakeFactory_Cake"><path codeline="73" d="M500.68,74 C461.97,90.8 414.84,111.65 373,131.29 C367.58,133.84 362,136.5 356.39,139.22 " fill="none" id="CakeFactory-backto-Cake" style="stroke:#181818;stroke-width:1.0;stroke-dasharray:7.0,7.0;"></path><polygon fill="#181818" points="504.84,71.77,494.9916,71.6757,500.2517,73.7568,498.1705,79.0169,504.84,71.77" style="stroke:#181818;stroke-width:1.0;"></polygon></g><!--SRC=[bLFBQiCm4BphAqnEAIM1NaCkRKeXbvYI_e0iRLqHrpBIEX2Q_djNYXt9ZxIkBmPfTZGxEoiARcsouGVOgp8l07MPVB64lliSS5jQvAM0-TsgYs7VZ0bV-kIEqN24_DHMPdJcIevQoO3S4vNaHhgAtv6ljHA7ls6faM3Ip88vWccXTIL9omtmJgDwLm7C4RducEk6OzMbR3ayLC9aQEbUEGqblEcg8WEVGMZoImSLKZPNmvfTZRQvd09F3UX_mDrC7oMlC5ZY-zcC-XsXjvzLCR7YXGlgzPeDOO3cqyBTFqg88bgONCGpIy4Jc8J7HWDpouQWFbRkQTRdnIBsFZgDB8vEUzvSQC9ApHvc2Q7SpwllR8qdYBTZvFgw4goR-aPIb6qsYDcWcN54lx4s6ElpSZdeBnxIHNz_Tbr8G_43]--></g></svg>